<svg xmlns="http://www.w3.org/2000/svg" viewBox="0 0 455 455"><defs><style>.cls-1{fill:#eda1ff;}.cls-2{fill:#f1baf5;stroke-miterlimit:10;}.cls-2,.cls-4{stroke:#231f20;stroke-width:9.33px;}.cls-3{fill:#fff;}.cls-4{fill:none;stroke-linecap:round;stroke-linejoin:round;}</style></defs><title>Recurso 3</title><g id="Capa_2" data-name="Capa 2"><g id="Capa_1-2" data-name="Capa 1"><g id="Layer_1" data-name="Layer 1"><circle class="cls-1" cx="227.5" cy="227.5" r="227.5"/><circle class="cls-2" cx="227.5" cy="227.5" r="208"/><path class="cls-3" d="M297.91,89a19.71,19.71,0,0,0-22.27,16.77v0L259.92,213.66,244.25,106.17a19.72,19.72,0,0,0-39,5.45l11.42,81.55a21,21,0,0,0-34.62,15.91V228a21,21,0,0,0-41.94,0v56.86c0,41.89,31.61,78.46,73.41,81.16,43.06,2.79,83.87-29.71,83.87-80.68,0-67.31,0-44.82,17.3-174A19.7,19.7,0,0,0,298,89Z"/><path class="cls-4" d="M244.14,285.32h0a35,35,0,0,0-35,35h0v10.36"/><path class="cls-4" d="M297.91,89a19.71,19.71,0,0,0-22.27,16.77v0L259.92,213.66,244.25,106.17a19.72,19.72,0,0,0-39,5.45l11.42,81.55a21,21,0,0,0-34.62,15.91V228a21,21,0,0,0-41.94,0v56.86c0,41.89,31.61,78.46,73.41,81.16,43.06,2.79,83.87-29.71,83.87-80.68,0-67.31,0-44.82,17.3-174A19.7,19.7,0,0,0,298,89Z"/><path class="cls-3" d="M161.08,207h0a21,21,0,0,0-21,21h0v25.61a21,21,0,0,0,21,21h0a21,21,0,0,0,21-21h0V228A21,21,0,0,0,161.08,207Z"/><path class="cls-3" d="M203,188.08h0a21,21,0,0,0-21,21h0v44.54a21,21,0,0,0,21,21h0a21,21,0,0,0,21-21h0V209.05A21,21,0,0,0,203,188.08Z"/><path class="cls-4" d="M161.08,207h0a21,21,0,0,0-21,21h0v25.61a21,21,0,0,0,21,21h0a21,21,0,0,0,21-21h0V228A21,21,0,0,0,161.08,207Z"/><path class="cls-4" d="M203,188.08h0a21,21,0,0,0-21,21h0v44.54a21,21,0,0,0,21,21h0a21,21,0,0,0,21-21h0V209.05A21,21,0,0,0,203,188.08Z"/><path class="cls-3" d="M297.39,285.32h0a40.92,40.92,0,0,0-40.92-40.92H192.75a10.84,10.84,0,0,0-10.85,10.83h0A30.08,30.08,0,0,0,212,285.32h32.16"/><path class="cls-4" d="M297.39,285.32h0a40.92,40.92,0,0,0-40.92-40.92H192.75a10.84,10.84,0,0,0-10.85,10.83h0A30.08,30.08,0,0,0,212,285.32h32.16"/></g></g></g></svg>