<svg xmlns="http://www.w3.org/2000/svg" viewBox="0 0 455 455"><defs><style>.cls-1{fill:#3ec6b6;}.cls-2{fill:#00e1d4;stroke-miterlimit:10;}.cls-2,.cls-4{stroke:#231f20;stroke-width:9.33px;}.cls-3{fill:#fff;}.cls-4{fill:none;stroke-linecap:round;stroke-linejoin:round;}</style></defs><title>Recurso 4</title><g id="Capa_2" data-name="Capa 2"><g id="Capa_1-2" data-name="Capa 1"><g id="Layer_1" data-name="Layer 1"><circle class="cls-1" cx="227.5" cy="227.5" r="227.5"/><circle class="cls-2" cx="227.5" cy="227.29" r="208"/><path class="cls-3" d="M309.23,243.11l-14,13.15V143.17c0-9.72-7.24-18.72-17.77-18.72a17.76,17.76,0,0,0-17.71,17.77v-16c0-10.21-7.59-20-19-20a18.94,18.94,0,0,0-19,18.88v-1a17.5,17.5,0,0,0-17.12-17.87H204a17.76,17.76,0,0,0-17.77,17.75v30a15.58,15.58,0,0,0-15.58-15.57c-9.34,0-15.57,7.65-15.57,16.2V282.38c0,36.42,29.34,66.44,65.78,66.44a103.29,103.29,0,0,0,76.66-34.08l53-57.52a9.76,9.76,0,0,0-.29-13.54h0A29.53,29.53,0,0,0,309.23,243.11Z"/><line class="cls-4" x1="184.27" y1="153.92" x2="184.27" y2="214.88"/><line class="cls-4" x1="219.81" y1="125.14" x2="219.81" y2="214.88"/><line class="cls-4" x1="257.72" y1="142.22" x2="257.72" y2="214.88"/><path class="cls-4" d="M293.27,256.26h-36a42.6,42.6,0,0,0-32.34,14.82"/><path class="cls-4" d="M307.26,243.11l-14,13.15V143.17c0-9.72-7.24-18.72-17.78-18.72a17.77,17.77,0,0,0-17.73,17.77v-16c0-10.21-7.58-20-19-20a19,19,0,0,0-19,19V124a17.49,17.49,0,0,0-17.1-17.87H202a17.78,17.78,0,0,0-17.77,17.77h0v30a15.57,15.57,0,0,0-15.52-15.59c-9.34,0-15.57,7.65-15.57,16.2V282.38c0,36.42,29.34,66.44,65.78,66.44,35.6,0,57.08-12.39,76.66-34.08l53-57.52a9.75,9.75,0,0,0-.3-13.54h0A29.51,29.51,0,0,0,307.26,243.11Z"/></g></g></g></svg>