<svg xmlns="http://www.w3.org/2000/svg" xmlns:xlink="http://www.w3.org/1999/xlink" viewBox="0 0 455 455"><defs><style>.cls-1{fill:url(#Degradado_sin_nombre_12);}.cls-2{fill:#ffe84a;stroke-miterlimit:10;}.cls-2,.cls-4{stroke:#231f20;stroke-width:9.33px;}.cls-3{fill:#fff;}.cls-4{fill:none;stroke-linecap:round;stroke-linejoin:round;}</style><linearGradient id="Degradado_sin_nombre_12" y1="227.5" x2="455" y2="227.5" gradientUnits="userSpaceOnUse"><stop offset="1" stop-color="#ffd04d"/><stop offset="1"/></linearGradient></defs><title>Recurso 2</title><g id="Capa_2" data-name="Capa 2"><g id="Capa_1-2" data-name="Capa 1"><g id="Layer_1" data-name="Layer 1"><circle class="cls-1" cx="227.5" cy="227.5" r="227.5"/><circle class="cls-2" cx="227.5" cy="227.5" r="208"/><path class="cls-3" d="M312.27,205.7V147.25a20.22,20.22,0,1,0-40.44,0v1.82a23.85,23.85,0,0,0-47.69-1c0,.33,0,.65,0,1v-.26a23.59,23.59,0,1,0-47.17-1c0,.32,0,.65,0,1v28.63a22.16,22.16,0,0,0-44.32,0v71.2a81.14,81.14,0,0,0,81.14,81.14H225a97.36,97.36,0,0,0,97.36-97.35A40.3,40.3,0,0,0,312.27,205.7Z"/><path class="cls-4" d="M154.81,228.6h0a22.16,22.16,0,0,1-22.16-22.16v-29a22.16,22.16,0,0,1,22.16-22.16h0A22.16,22.16,0,0,1,177,177.44v29A22.16,22.16,0,0,1,154.81,228.6Z"/><path class="cls-4" d="M322.36,232.43a40.49,40.49,0,0,0-40.49-40.49h-97a7.93,7.93,0,0,0-7.92,7.93v5A35.13,35.13,0,0,0,212.08,240H260.2"/><line class="cls-4" x1="224.14" y1="149.07" x2="224.14" y2="191.94"/><path class="cls-4" d="M312.27,205.7V147.25a20.22,20.22,0,1,0-40.44,0v1.82a23.85,23.85,0,0,0-47.69-1c0,.33,0,.65,0,1v-.26a23.59,23.59,0,1,0-47.17-1c0,.32,0,.65,0,1v28.63a22.16,22.16,0,0,0-44.32,0v71.2a81.14,81.14,0,0,0,81.14,81.14H225a97.36,97.36,0,0,0,97.36-97.35A40.3,40.3,0,0,0,312.27,205.7Z"/><line class="cls-4" x1="271.83" y1="149.07" x2="271.83" y2="191.94"/><path class="cls-4" d="M259.67,240h0a39,39,0,0,0-39,39v11.59"/></g></g></g></svg>